HIERARCHY
ROOT Hips
{
	OFFSET 0.00 0.00 0.00
	CHANNELS 6 Xposition Yposition Zposition Xrotation Yrotation Zrotation
	JOINT Spine
	{
		OFFSET 0.00000 6.11665 0.00000
		CHANNELS 3 Xrotation Yrotation Zrotation
		JOINT Head
		{
			OFFSET 0.00000 15.22556 0.00000
			CHANNELS 3 Xrotation Yrotation Zrotation
			End Site
			{
				OFFSET 0.00000 4.52755 0.00000
			}
		}
		JOINT LeftShoulder
		{
			OFFSET 0.00000 8.97765 0.00000
			CHANNELS 3 Xrotation Yrotation Zrotation
			JOINT LeftArm
			{
				OFFSET 7.11013 0.00000 0.00000
				CHANNELS 3 Xrotation Yrotation Zrotation
				JOINT LeftForeArm
				{
					OFFSET 10.39834 0.00000 0.00000
					CHANNELS 3 Yrotation Zrotation Xrotation
					JOINT LeftHand
					{
						OFFSET 8.88900 0.00000 0.00000
						CHANNELS 3 Xrotation Yrotation Zrotation
						JOINT LeftHandThumb1
						{
							OFFSET 0.00000 0.00000 0.00000
							CHANNELS 3 Xrotation Zrotation Yrotation
							End Site
							{
								OFFSET 0.00000 0.00000 3.93700
							}
						}
						End Site
						{
							OFFSET 3.93700 0.00000 0.00000
						}
					}
				}
			}
		}
		JOINT RightShoulder
		{
			OFFSET 0.00000 8.97765 0.00000
			CHANNELS 3 Xrotation Yrotation Zrotation
			JOINT RightArm
			{
				OFFSET -7.11013 0.00000 0.00000
				CHANNELS 3 Xrotation Yrotation Zrotation
				JOINT RightForeArm
				{
					OFFSET -10.39834 0.00000 0.00000
					CHANNELS 3 Yrotation Zrotation Xrotation
					JOINT RightHand
					{
						OFFSET -8.88900 0.00000 0.00000
						CHANNELS 3 Xrotation Yrotation Zrotation
						JOINT RightHandThumb1
						{
							OFFSET 0.00000 0.00000 0.00000
							CHANNELS 3 Xrotation Zrotation Yrotation
							End Site
							{
								OFFSET 0.00000 0.00000 3.93700
							}
						}
						End Site
						{
							OFFSET -3.93700 0.00000 0.00000
						}
					}
				}
			}
		}
	}
	JOINT LeftUpLeg
	{
		OFFSET 4.71176 0.00000 0.00000
		CHANNELS 3 Xrotation Yrotation Zrotation
		JOINT LeftLeg
		{
			OFFSET 0.00000 -15.51045 0.00000
			CHANNELS 3 Xrotation Yrotation Zrotation
			JOINT LeftFoot
			{
				OFFSET 0.00000 -14.85806 0.00000
				CHANNELS 3 Xrotation Yrotation Zrotation
				JOINT LeftToeBase
				{
					OFFSET 0.00000 -1.32744 4.95409
					CHANNELS 3 Xrotation Yrotation Zrotation
					End Site
					{
						OFFSET 0.00000 0.00000 2.95275
					}
				}
			}
		}
	}
	JOINT RightUpLeg
	{
		OFFSET -4.71176 0.00000 0.00000
		CHANNELS 3 Xrotation Yrotation Zrotation
		JOINT RightLeg
		{
			OFFSET 0.00000 -15.51045 0.00000
			CHANNELS 3 Xrotation Yrotation Zrotation
			JOINT RightFoot
			{
				OFFSET 0.00000 -14.85806 0.00000
				CHANNELS 3 Xrotation Yrotation Zrotation
				JOINT RightToeBase
				{
					OFFSET 0.00000 -1.32744 4.95409
					CHANNELS 3 Xrotation Yrotation Zrotation
					End Site
					{
						OFFSET 0.00000 0.00000 2.95275
					}
				}
			}
		}
	}
}
MOTION
Frames:	17
Frame Time: 0.008333
-3.9838 32.2079 -0.3614 -5.6826 0.7153 0.2704 1.8806 -5.3286 -0.0759 18.9644 31.8249 -4.5544 0.5927 11.4106 27.3312 -41.5184 43.4193 -44.5040 -123.7110 0.0000 -18.2468 14.9463 -24.2024 33.0700 32.8623 0.0000 24.3270 -7.6909 0.1388 -25.1874 -8.2427 41.4831 102.7778 9.8779 0.0000 2.3313 -1.0117 9.9367 5.8433 33.1476 -0.0000 -26.2537 10.5606 8.0323 -2.2779 1.2650 -0.0000 -0.0000 -10.5311 17.8038 -7.1007 11.3946 -0.0000 -0.0000 11.9448 -2.1404 2.0964 2.8221 -0.0000 -0.0000 -15.8780 -27.6007 9.2277 16.3397 -0.0000 -0.0000
-3.9837 32.2083 -0.3597 -5.6509 0.6775 0.2588 1.8577 -5.2188 -0.0693 18.9827 31.7296 -4.5456 0.6526 11.5892 27.4648 -41.5130 43.5729 -44.0094 -123.7259 0.0000 -18.5276 15.0311 -24.1345 33.2948 32.8623 0.0000 24.3270 -7.7006 0.0548 -25.2137 -8.2471 41.5286 102.7686 9.8411 -0.0000 2.3611 -1.0218 9.9699 5.8818 33.1476 -0.0000 -26.2537 10.5308 8.0290 -2.2743 1.2803 -0.0000 -0.0000 -10.5350 17.8480 -7.1072 11.3888 -0.0000 -0.0000 11.9081 -2.1067 2.0974 2.8263 -0.0000 -0.0000 -15.8572 -27.5968 9.2613 16.2881 -0.0000 -0.0000
-3.9825 32.2083 -0.3556 -5.6305 0.6436 0.2494 1.8348 -5.1354 -0.0717 19.0051 31.6505 -4.5373 0.7865 11.8407 27.5631 -41.7176 43.7442 -43.4657 -123.7162 -0.0000 -18.8340 14.9140 -24.3169 32.8947 32.8623 0.0000 24.3270 -7.6708 -0.0176 -25.2271 -8.2788 41.5940 102.7535 9.8218 0.0000 2.3471 -1.0261 9.9936 5.8923 33.1476 -0.0000 -26.2537 10.5191 8.0007 -2.2743 1.2859 -0.0000 -0.0000 -10.5576 17.9133 -7.0841 11.3359 -0.0000 -0.0000 11.8951 -2.1019 2.0956 2.8203 -0.0000 -0.0000 -15.8170 -27.5483 9.3115 16.1807 -0.0000 -0.0000
-3.9828 32.2088 -0.3498 -5.6142 0.5846 0.2315 1.8242 -5.0279 -0.0670 19.0047 31.5663 -4.5241 0.8671 12.0881 27.6651 -41.9025 43.9457 -42.8843 -123.7541 0.0000 -19.0647 14.5211 -24.2008 32.2859 32.8623 0.0000 24.3270 -7.6610 -0.1099 -25.2499 -8.2977 41.6487 102.7364 9.8362 -0.0000 2.4053 -1.0357 9.9787 5.9558 33.1476 -0.0000 -26.2537 10.5177 8.0285 -2.2662 1.2929 -0.0000 -0.0000 -10.5719 17.9433 -7.0754 11.2703 -0.0000 -0.0000 11.8908 -2.0610 2.1001 2.7983 -0.0000 -0.0000 -15.8282 -27.5450 9.3050 16.3734 -0.0000 -0.0000
-3.9823 32.2098 -0.3444 -5.6031 0.5194 0.2168 1.8132 -4.9056 -0.0718 19.0219 31.4839 -4.4865 1.0426 12.3547 27.7672 -42.1286 44.1361 -42.3332 -123.7699 0.0000 -19.1502 14.7134 -24.1545 32.6894 32.8623 0.0000 24.3270 -7.6334 -0.2038 -25.2530 -8.3077 41.6862 102.6995 9.8508 -0.0000 2.4231 -1.0328 10.0301 5.9094 33.1476 -0.0000 -26.2537 10.5262 8.0591 -2.2643 1.2935 -0.0000 -0.0000 -10.5880 17.9777 -7.0991 11.3318 -0.0000 -0.0000 11.8896 -2.0386 2.0976 2.7772 -0.0000 -0.0000 -15.7903 -27.4958 9.3169 16.3783 -0.0000 -0.0000
-3.9829 32.2101 -0.3388 -5.5878 0.4337 0.1991 1.8014 -4.7522 -0.0820 19.0103 31.3956 -4.4086 1.2273 12.6405 27.8853 -42.3765 44.3943 -41.7833 -123.8059 -0.0000 -18.8364 14.5308 -23.9385 32.5699 32.8623 0.0000 24.3270 -7.5898 -0.3288 -25.2523 -8.3272 41.7064 102.6561 9.9027 0.0000 2.4556 -1.0279 9.9866 5.9068 33.1476 -0.0000 -26.2537 10.5402 8.1226 -2.2645 1.2805 -0.0000 -0.0000 -10.5947 18.0061 -7.0980 11.3012 -0.0000 -0.0000 11.8814 -1.9901 2.0949 2.7612 -0.0000 -0.0000 -15.7645 -27.4466 9.3413 16.3871 -0.0000 -0.0000
-3.9836 32.2111 -0.3335 -5.5694 0.3267 0.1773 1.7783 -4.6030 -0.0943 19.0313 31.3567 -4.3330 1.3937 12.9475 27.9838 -42.6958 44.6469 -41.2012 -123.8191 0.0000 -18.8034 14.7639 -24.0382 32.9013 32.8623 0.0000 24.3270 -7.5703 -0.3925 -25.2291 -8.2772 41.7046 102.5917 9.9603 0.0000 2.4868 -1.0316 10.0824 5.8728 33.1476 -0.0000 -26.2537 10.5553 8.2078 -2.2637 1.2654 -0.0000 -0.0000 -10.5974 18.0300 -7.0716 11.2391 -0.0000 -0.0000 11.8607 -1.9253 2.0953 2.7538 -0.0000 -0.0000 -15.7369 -27.4117 9.3578 16.3862 -0.0000 -0.0000
-3.9851 32.2118 -0.3260 -5.5540 0.2199 0.1491 1.7578 -4.3941 -0.1103 19.0189 31.2627 -4.2110 1.5311 13.2239 28.1047 -42.9359 44.8711 -40.7081 -123.8552 0.0000 -18.6375 14.7337 -24.1068 32.7755 32.8623 0.0000 24.3270 -7.5442 -0.5246 -25.2040 -8.2026 41.6860 102.5081 10.0661 -0.0000 2.5067 -1.0212 10.0790 5.8158 33.1476 -0.0000 -26.2537 10.5764 8.3178 -2.2562 1.2501 -0.0000 -0.0000 -10.6258 18.0422 -7.0553 11.3071 -0.0000 -0.0000 11.8611 -1.8784 2.1010 2.7193 -0.0000 -0.0000 -15.7014 -27.3496 9.3701 16.4345 -0.0000 -0.0000
-3.9884 32.2129 -0.3198 -5.5431 0.1170 0.1175 1.7307 -4.2626 -0.1175 19.0957 31.2477 -4.1612 1.6361 13.5130 28.2170 -43.1562 45.1337 -40.1937 -123.8776 0.0000 -18.4491 14.7351 -24.1372 32.7473 32.8623 0.0000 24.3270 -7.4891 -0.5717 -25.1707 -8.1476 41.6280 102.4347 10.1638 0.0000 2.5328 -1.0055 10.0765 5.7283 33.1476 -0.0000 -26.2537 10.5940 8.4130 -2.2403 1.2445 -0.0000 -0.0000 -10.6370 18.0542 -7.0515 11.2328 -0.0000 -0.0000 11.8538 -1.8728 2.1105 2.7094 -0.0000 -0.0000 -15.5845 -27.2288 9.5805 16.1993 -0.0000 -0.0000
-3.9873 32.2129 -0.3130 -5.5380 -0.0047 0.1017 1.7397 -4.0620 -0.1339 19.0868 31.1558 -4.0834 1.6803 13.7259 28.3425 -43.4088 45.4970 -39.6335 -123.9007 -0.0000 -18.1847 14.8332 -24.2161 32.8483 32.8623 0.0000 24.3270 -7.4956 -0.6658 -25.1539 -8.0414 41.5950 102.3545 10.2983 0.0000 2.5484 -0.9882 10.0663 5.6362 33.1476 -0.0000 -26.2537 10.6269 8.5498 -2.2517 1.2353 -0.0000 -0.0000 -10.6504 18.0424 -7.0329 11.2216 -0.0000 -0.0000 11.8650 -1.7864 2.0970 2.6645 -0.0000 -0.0000 -15.5860 -27.2090 9.5448 16.3472 -0.0000 -0.0000
-3.9920 32.2132 -0.3056 -5.5305 -0.1242 0.0584 1.7295 -3.8781 -0.1472 19.0825 31.0914 -3.9540 1.9951 14.0971 28.4164 -43.9804 45.8573 -39.1169 -123.9413 0.0000 -18.1573 14.7698 -24.2991 32.6476 32.8623 0.0000 24.3270 -7.4527 -0.7624 -25.1089 -7.9854 41.5557 102.2767 10.4186 -0.0000 2.5351 -0.9896 10.0521 5.6519 33.1476 -0.0000 -26.2537 10.6527 8.6331 -2.2251 1.2227 -0.0000 -0.0000 -10.6833 18.0963 -7.0452 11.2260 -0.0000 -0.0000 11.8614 -1.7266 2.1210 2.6485 -0.0000 -0.0000 -15.5442 -27.1421 9.5681 16.4128 -0.0000 -0.0000
-3.9950 32.2132 -0.2999 -5.5296 -0.2410 0.0296 1.7293 -3.6910 -0.1583 19.1106 31.0247 -3.8646 1.9016 14.2730 28.5400 -44.1055 46.1630 -38.6553 -123.9266 -0.0000 -18.0098 14.6836 -24.7077 32.0838 32.8623 0.0000 24.3270 -7.4382 -0.8429 -25.0895 -7.9221 41.5045 102.2295 10.5388 0.0000 2.5436 -0.9815 10.0220 5.6224 33.1476 -0.0000 -26.2537 10.6899 8.7125 -2.2146 1.2019 -0.0000 -0.0000 -10.7049 18.1365 -7.0560 11.2480 -0.0000 -0.0000 11.8698 -1.6619 2.1290 2.6186 -0.0000 -0.0000 -15.5437 -27.0889 9.4957 16.5884 -0.0000 -0.0000
-3.9964 32.2138 -0.2937 -5.5327 -0.3637 0.0021 1.7283 -3.5040 -0.1711 19.1549 30.9929 -3.7698 1.8681 14.5195 28.6405 -44.3571 46.4372 -38.2338 -123.9571 -0.0000 -18.2660 14.9376 -24.3126 32.9424 32.8623 0.0000 24.3270 -7.4028 -0.9164 -25.0582 -7.8748 41.4695 102.1755 10.6573 0.0000 2.5339 -0.9594 9.9442 5.5391 33.1476 -0.0000 -26.2537 10.7337 8.8081 -2.2106 1.1765 -0.0000 -0.0000 -10.7247 18.1586 -6.9927 11.2651 -0.0000 -0.0000 11.8784 -1.5496 2.1312 2.5941 -0.0000 -0.0000 -15.5086 -27.0710 9.5137 16.5452 -0.0000 -0.0000
-3.9980 32.2135 -0.2888 -5.5320 -0.4796 -0.0279 1.7247 -3.3353 -0.1796 19.2128 30.9997 -3.6963 1.7824 14.6865 28.7394 -44.5374 46.7723 -37.7641 -123.9771 -0.0000 -18.3329 14.9737 -24.5854 32.7351 32.8623 0.0000 24.3270 -7.3631 -0.9846 -25.0400 -7.8641 41.4294 102.1452 10.7547 0.0000 2.5191 -0.9557 9.9308 5.5248 33.1476 -0.0000 -26.2537 10.7660 8.8681 -2.2000 1.1628 -0.0000 -0.0000 -10.7466 18.2305 -7.0694 11.2455 -0.0000 -0.0000 11.8800 -1.4770 2.1374 2.5752 -0.0000 -0.0000 -15.4418 -27.0068 9.5935 16.3528 -0.0000 -0.0000
-3.9983 32.2135 -0.2840 -5.5330 -0.5839 -0.0571 1.7211 -3.1678 -0.1838 19.2920 30.9990 -3.6412 1.7083 14.8391 28.8388 -44.7316 47.1686 -37.3551 -124.0135 -0.0000 -18.4102 14.7727 -24.7118 32.2430 32.8623 0.0000 24.3270 -7.3453 -1.0468 -25.0183 -7.8320 41.4228 102.1116 10.8535 0.0000 2.5207 -0.9539 9.9824 5.4865 33.1476 -0.0000 -26.2537 10.7864 8.8954 -2.1903 1.1669 -0.0000 -0.0000 -10.7930 18.3017 -7.0313 11.3096 -0.0000 -0.0000 11.8882 -1.3835 2.1420 2.5420 -0.0000 -0.0000 -15.4372 -26.9963 9.5483 16.5311 -0.0000 -0.0000
-3.9985 32.2137 -0.2791 -5.5392 -0.6816 -0.0828 1.7226 -2.9991 -0.1942 19.3657 31.0013 -3.5756 1.7052 15.0263 28.9203 -45.0210 47.5675 -36.9996 -124.0413 -0.0000 -18.4405 14.8120 -24.8123 32.2165 32.8623 0.0000 24.3270 -7.3256 -1.1205 -24.9886 -7.8193 41.4051 102.0870 10.9157 0.0000 2.5348 -0.9492 10.0218 5.4387 33.1476 -0.0000 -26.2537 10.8190 8.9724 -2.1822 1.1586 -0.0000 -0.0000 -10.7930 18.3210 -7.0592 11.2999 -0.0000 -0.0000 11.8971 -1.3353 2.1457 2.5265 -0.0000 -0.0000 -15.4115 -26.9549 9.5635 16.5287 -0.0000 -0.0000
-3.9974 32.2146 -0.2738 -5.5527 -0.7744 -0.0863 1.7310 -2.8217 -0.2375 19.4043 30.9894 -3.4747 1.8990 15.1906 28.9508 -45.5858 48.1048 -36.5238 -124.1354 0.0000 -18.5108 14.6657 -24.7410 32.0184 32.8623 0.0000 24.3270 -7.2929 -1.2039 -24.9406 -7.8125 41.3676 102.0574 10.9616 -0.0000 2.6063 -0.9402 10.0424 5.3763 33.1476 -0.0000 -26.2537 10.8307 9.1690 -2.1979 1.2201 -0.0000 -0.0000 -10.8170 18.2303 -7.0365 11.2772 -0.0000 -0.0000 11.9145 -1.2851 2.1260 2.5080 -0.0000 -0.0000 -15.3805 -26.9050 9.5839 16.5438 -0.0000 -0.0000
